<?xml version="1.0" standalone="no"?>
<!DOCTYPE svg PUBLIC "-//W3C//DTD SVG 20010904//EN"
 "http://www.w3.org/TR/2001/REC-SVG-20010904/DTD/svg10.dtd">
<svg version="1.0" xmlns="http://www.w3.org/2000/svg"
 width="260.000000pt" height="260.000000pt" viewBox="0 0 260.000000 260.000000"
 preserveAspectRatio="xMidYMid meet">
<metadata>
Created by potrace 1.11, written by Peter Selinger 2001-2013
</metadata>
<g transform="translate(0.000000,260.000000) scale(0.100000,-0.100000)"
fill="#000000" stroke="none">
<path d="M933 2418 c-5 -7 -141 -365 -303 -795 l-293 -782 -116 -3 -116 -3 -3
-338 -2 -337 555 0 555 0 -2 318 -3 317 -63 3 c-53 3 -63 6 -60 20 3 15 24 17
202 20 197 2 215 0 216 -30 0 -5 -29 -8 -65 -8 l-65 0 0 -320 0 -320 568 2
567 3 0 330 0 330 -115 5 -114 5 -63 165 c-34 91 -62 170 -62 175 -1 6 27 23
60 38 77 36 184 141 226 222 111 212 73 457 -96 626 -79 78 -162 123 -278 146
-70 15 -93 16 -160 5 -43 -6 -87 -13 -97 -14 -17 -3 -27 16 -64 115 l-45 117
-377 0 c-290 0 -380 -3 -387 -12z m1192 -289 c48 -18 116 -58 73 -43 -10 3
-18 1 -18 -4 0 -6 9 -14 20 -17 11 -3 20 -13 20 -20 0 -9 -6 -12 -17 -8 -12 4
-11 0 5 -11 27 -21 30 -48 5 -39 -12 4 -11 0 5 -11 27 -21 29 -40 2 -31 -31
10 -24 -3 12 -21 28 -15 30 -18 15 -29 -15 -11 -14 -13 8 -23 29 -13 33 -32 8
-32 -13 -1 -10 -5 10 -16 15 -8 25 -19 22 -24 -3 -5 -1 -11 5 -15 5 -3 10 -14
10 -24 0 -10 7 -24 15 -31 13 -11 13 -14 -2 -26 -16 -11 -14 -13 15 -12 20 1
36 8 42 19 8 14 6 16 -10 12 -21 -6 -29 20 -10 32 6 3 10 11 10 17 0 6 -8 3
-19 -6 -16 -14 -19 -15 -24 -2 -3 8 1 20 9 26 8 7 14 17 14 22 0 6 -7 5 -15
-2 -22 -18 -32 -3 -16 23 13 20 13 21 -2 9 -22 -19 -33 4 -13 27 16 17 15 18
-9 14 -32 -7 -34 19 -2 36 21 11 21 11 -5 6 -32 -6 -48 13 -24 30 15 12 15 13
-4 18 -23 6 -27 27 -5 27 8 0 15 5 15 10 0 6 -9 10 -21 10 -26 0 -20 24 8 28
29 4 107 -86 149 -173 42 -88 55 -181 30 -220 -20 -31 -39 -24 -30 11 5 20 3
23 -12 17 -11 -3 -28 -13 -39 -21 -20 -14 -20 -14 1 -8 29 9 52 -18 33 -40
-11 -13 -9 -14 13 -9 30 8 45 -17 22 -35 -8 -7 -14 -27 -14 -45 0 -59 -128
-208 -217 -253 -63 -33 -149 -53 -219 -54 -69 0 -88 8 -82 38 4 24 25 29 31 7
3 -12 5 -9 6 9 1 34 16 44 30 21 12 -20 14 -9 5 25 -5 15 -14 22 -32 22 -19 0
-23 -3 -15 -11 13 -13 -17 -49 -41 -49 -9 0 -12 -8 -8 -26 4 -24 2 -26 -19
-19 -104 29 -222 116 -279 205 -62 97 -87 241 -59 345 15 55 60 155 70 155 5
0 6 -7 3 -15 -4 -8 -3 -15 0 -15 4 0 11 11 16 25 14 36 42 34 35 -2 l-5 -28
11 28 c13 33 27 35 39 5 7 -18 9 -19 9 -5 1 10 16 23 41 33 22 9 40 20 40 25
0 13 -5 12 -44 -12 -20 -12 -36 -16 -36 -10 0 5 8 14 17 20 10 5 15 13 10 17
-4 4 -16 -1 -28 -12 -11 -10 -35 -19 -54 -19 -31 -1 -32 0 -19 19 17 28 97 88
153 116 103 51 248 59 356 19z m-719 -44 c13 -20 14 -41 8 -126 -5 -75 -4
-100 5 -95 6 4 11 16 11 27 0 11 7 31 16 45 9 13 19 38 23 55 9 46 25 39 26
-11 0 -33 -9 -64 -35 -115 l-36 -70 -55 8 c-74 11 -81 12 -105 4 -18 -6 -21
-3 -21 25 0 18 -1 42 -2 53 -2 11 0 29 3 40 2 11 5 23 5 28 1 4 7 7 14 7 6 0
37 22 67 50 44 39 51 49 34 50 -11 0 -24 -3 -27 -7 -4 -3 -18 -8 -32 -9 -33
-4 -33 19 1 45 37 29 79 27 100 -4z m-242 -205 c49 -18 58 -87 16 -125 -17
-15 -19 -15 -25 4 -4 13 -18 23 -41 27 -37 7 -42 13 -46 54 -2 14 -7 28 -13
32 -14 10 36 28 62 23 12 -3 33 -9 47 -15z m-68 -112 c4 -5 -4 -8 -17 -6 -12
1 -24 8 -26 15 -5 14 34 6 43 -9z m342 -15 c-3 -24 -18 -33 -172 -100 -93 -41
-170 -72 -171 -71 -4 4 327 197 338 198 5 0 7 -12 5 -27z m-452 -23 c38 0 67
-36 61 -76 -6 -33 -44 -94 -59 -94 -4 0 -8 9 -8 21 0 47 -17 59 -83 59 -64 0
-107 8 -107 19 1 10 70 51 86 51 8 0 14 4 14 9 0 11 38 20 58 15 8 -2 25 -4
38 -4z m444 -59 c0 -29 -2 -30 -157 -82 -87 -28 -165 -54 -173 -56 -8 -3 57
34 145 80 88 47 166 85 173 86 7 1 12 -11 12 -28z m0 -79 l0 -28 -172 -41
c-95 -23 -174 -40 -176 -39 -2 3 327 133 341 135 4 1 7 -12 7 -27z m21 -68 c5
-15 8 -28 7 -29 -8 -6 -340 -56 -349 -53 -9 3 292 102 324 107 4 0 12 -11 18
-25z m-454 -6 c27 -30 39 -55 47 -100 l7 -38 -39 0 c-22 0 -62 -7 -90 -16 -43
-14 -53 -15 -65 -3 -7 8 -12 20 -9 27 2 6 -1 12 -7 12 -6 0 -11 5 -11 10 0 15
118 130 133 130 8 0 23 -10 34 -22z m493 -83 c0 -8 -55 -16 -172 -24 -95 -7
-186 -14 -203 -16 -70 -11 12 11 175 45 157 34 176 36 188 22 6 -9 12 -21 12
-27z m-403 -1 c-3 -3 -12 -4 -19 -1 -8 3 -5 6 6 6 11 1 17 -2 13 -5z m433 -43
c5 -11 10 -22 10 -25 0 -3 -93 -5 -207 -5 l-208 2 185 22 c102 12 190 23 197
24 7 0 17 -8 23 -18z m-515 -31 c-3 -5 -15 -10 -26 -10 -10 0 -19 5 -19 10 0
6 12 10 26 10 14 0 23 -4 19 -10z m567 -28 c19 -26 108 -97 146 -116 l33 -17
-17 -29 c-10 -16 -38 -45 -64 -64 -33 -25 -50 -47 -59 -75 -17 -60 -29 -58
-36 6 -3 32 -7 65 -8 73 -1 8 -19 18 -45 23 -24 5 -42 14 -42 21 0 8 -7 19
-15 26 -9 7 -14 19 -11 27 3 7 0 13 -6 13 -27 0 20 31 55 37 41 6 80 -17 70
-43 -4 -10 3 -14 23 -14 26 1 27 2 12 14 -10 7 -18 18 -18 24 0 6 -13 19 -30
29 -29 17 -30 18 -9 29 18 9 9 12 -56 17 -43 4 -146 7 -228 7 -83 0 -148 2
-145 5 6 7 229 22 350 24 73 1 89 -2 100 -17z m-535 -3 c15 -15 -8 -112 -34
-148 -22 -29 -64 -53 -91 -51 -68 5 -98 7 -107 10 -5 1 -17 2 -26 1 -15 -2
-15 3 3 39 11 22 25 40 32 41 6 0 27 1 45 2 29 2 40 9 62 42 24 35 26 41 11
46 -13 5 -8 9 18 17 47 14 74 14 87 1z m104 -110 c25 -13 16 -28 -14 -22 -19
4 -29 -3 -47 -34 -38 -62 -60 -106 -60 -120 0 -7 -4 -13 -9 -13 -5 0 -14 -13
-20 -30 -15 -45 -31 -36 -31 18 0 26 -5 53 -12 60 -9 9 -9 12 2 12 7 0 43 32
80 70 69 72 78 77 111 59z m121 -19 c48 -14 68 -42 61 -89 -4 -34 -4 -35 12
-16 10 13 13 29 9 47 -4 19 -1 28 6 28 10 0 10 3 1 14 -9 11 -7 15 11 20 39
10 48 7 59 -20 11 -31 -2 -117 -26 -167 -8 -18 -29 -41 -45 -51 -30 -17 -30
-17 -30 7 0 13 -9 32 -20 42 -11 10 -20 24 -20 30 0 7 -11 29 -25 50 -33 48
-57 115 -41 115 6 0 28 -5 48 -10z"/>
<path d="M1773 1967 c-32 -7 -43 -15 -43 -29 0 -16 3 -16 20 -6 25 16 38 3 22
-22 -18 -30 -14 -38 6 -12 16 20 19 21 37 8 19 -14 19 -15 1 -35 -11 -12 -14
-21 -9 -21 6 0 13 7 17 15 3 8 12 15 21 15 24 0 29 -28 10 -50 -10 -11 -13
-20 -7 -20 7 0 17 9 24 19 9 15 15 17 25 9 17 -14 16 -33 -2 -48 -9 -7 -13
-15 -10 -18 3 -3 14 3 25 13 15 14 23 16 32 7 9 -9 8 -16 -4 -29 -30 -35 -31
-46 -3 -27 22 15 28 15 35 3 6 -9 2 -21 -12 -36 -12 -13 -19 -25 -16 -28 3 -3
11 1 18 10 7 8 16 15 21 15 15 0 10 -37 -6 -50 -8 -7 -15 -17 -15 -22 0 -6 7
-4 16 3 9 8 22 14 28 15 37 4 40 6 19 14 -13 5 -23 16 -23 25 0 9 9 15 23 16
19 1 17 3 -10 15 -38 16 -43 41 -10 47 20 4 20 4 -3 6 -25 1 -50 17 -50 32 0
4 10 10 23 12 16 3 14 5 -9 6 -17 0 -37 7 -43 15 -10 11 -6 16 16 25 27 11 27
11 -9 7 -49 -6 -71 17 -31 33 27 11 27 11 -7 6 -19 -2 -42 0 -50 5 -16 10 -15
11 20 27 21 10 18 11 -22 6 -51 -6 -64 6 -25 25 27 13 16 13 -40 -1z"/>
<path d="M1984 1599 c-29 -31 -23 -41 8 -12 17 15 18 15 18 -1 0 -10 -10 -27
-22 -37 l-23 -20 23 6 c31 9 29 -18 -3 -35 -14 -7 -23 -15 -20 -18 2 -3 11 0
19 7 10 8 21 9 41 1 15 -6 30 -9 32 -6 3 2 -5 7 -16 11 -26 8 -28 45 -3 45 16
1 16 1 0 11 -21 12 -24 36 -5 41 9 2 8 7 -4 20 -16 15 -19 14 -45 -13z"/>
<path d="M1978 1454 c-35 -19 -36 -26 -2 -18 32 8 25 -12 -10 -26 -17 -7 -17
-9 -3 -9 24 -1 22 -18 -4 -26 -20 -7 -20 -7 2 -26 32 -28 57 -21 28 8 -18 18
-1 35 22 23 23 -13 25 -3 2 22 -23 25 -3 48 24 27 10 -7 7 -1 -6 14 -14 15
-25 27 -25 27 -1 -1 -13 -8 -28 -16z"/>
<path d="M980 1696 c0 -2 7 -7 16 -10 8 -3 12 -2 9 4 -6 10 -25 14 -25 6z"/>
</g>
</svg>
